<svg xmlns="http://www.w3.org/2000/svg" version="1.1" xmlns:xlink="http://www.w3.org/1999/xlink" xmlns:svgjs="http://svgjs.dev/svgjs" width="1440" height="560" preserveAspectRatio="none" viewBox="0 0 1440 560"><g mask="url(&quot;#SvgjsMask1014&quot;)" fill="none"><path d="M1512 560L0 560 L0 403.63Q58.61 342.24, 120 400.85Q120.81 329.67, 192 330.48Q242.63 261.11, 312 311.73Q366.37 294.1, 384 348.46Q414.76 259.22, 504 289.97Q577.49 243.46, 624 316.94Q706.83 327.76, 696 410.59Q670.28 312.87, 768 287.14Q806.03 253.17, 840 291.2Q952.74 283.94, 960 396.67Q993 309.68, 1080 342.68Q1127.8 270.48, 1200 318.28Q1221.23 267.5, 1272 288.73Q1352.16 248.89, 1392 329.06Q1484.11 301.17, 1512 393.28z" fill="rgba(204, 87, 216, 1)"></path><path d="M1464 560L0 560 L0 420.91Q44.76 345.67, 120 390.43Q165.46 363.89, 192 409.35Q263.13 360.49, 312 431.62Q385.18 384.8, 432 457.98Q483.28 437.26, 504 488.55Q511.72 376.27, 624 384Q664.51 352.51, 696 393.03Q778.96 355.99, 816 438.94Q862.21 413.15, 888 459.36Q946.3 445.67, 960 503.97Q967.76 391.74, 1080 399.5Q1103.83 351.33, 1152 375.16Q1241.94 345.11, 1272 435.05Q1366.32 409.37, 1392 503.69Q1406.99 446.68, 1464 461.67z" fill="rgba(173, 53, 177, 1)"></path><path d="M1512 560L0 560 L0 580.47Q53.05 513.52, 120 566.57Q139.08 513.65, 192 532.73Q223.05 443.78, 312 474.83Q358.77 449.6, 384 496.37Q466.34 506.71, 456 589.05Q471.8 484.85, 576 500.65Q600.46 453.11, 648 477.57Q730.63 440.2, 768 522.83Q816.61 451.44, 888 500.04Q933.59 425.63, 1008 471.22Q1107.74 450.96, 1128 550.69Q1175.74 478.43, 1248 526.17Q1290.5 448.67, 1368 491.17Q1392.25 443.43, 1440 467.68Q1496.89 452.58, 1512 509.47z" fill="rgba(255, 255, 255, 1)"></path></g><defs><mask id="SvgjsMask1014"><rect width="1440" height="560" fill="#ffffff"></rect></mask></defs></svg>